# xmcd
# Track frame offsets:
# 150
# 12956
# 30461
# 44608
# 61228
# 83849
# 107842
# 133041
# 151361
# 178314
# 192083
# 215693
# 230358
# 251831
# 267139
# 282954
# 296449
# 310718
#
# Disc length: 4404 seconds
# Revision: 0
# Processed by: cddbd v1.5.1PL0 Copyright (c) Steve Scherf et al.
# Submitted via: VisiTrax 2.9.10.228 - For more info visit www.synapsa.com
#
DISCID=02113212
DTITLE=Various Artist - Blues With A Message
DYEAR=2005
DGENRE=
TTITLE0=Sam Chatman - I Have to Paint My Face
TTITLE1=John Jackson - John Henry
TTITLE2=Mercy Dee - Walked Down So Many Turn Rows
TTITLE3=Mance Lipscomb - Tom Moore's Farm
TTITLE4=Lightning Hopkins - Tom Moore Blues
TTITLE5=Lowell Fulson - River Blues Parts 1 and 2
TTITLE6=Fred McDowell - Levee Camp Blues
TTITLE7=Essie Jenkins - The 1919 Influenza Blues
TTITLE8=Willie Eason - Why I Like Roosevelt
TTITLE9=Doctor Ross - Little Soldier Boy
TTITLE10=Robert Pete Williams - Prisoner's Talking Blues
TTITLE11=Johnie Lewis - I Go To Climb A High Mountain
TTITLE12=Herman E. Johnson - Depression Blues
TTITLE13=Johnny Young and Big Walter Horton - Stockyard Blues
TTITLE14=Juke Boy Bonner - What Will I Tell The Children
TTITLE15=Juke Boy Bonner - It's Enough
TTITLE16=Bee Houston - Things Gonna Get Better
TTITLE17=Big Joe Williams - Back Home Blues
EXTD=Arhoolie Productions - CD 510
EXTT0=
EXTT1=
EXTT2=
EXTT3=
EXTT4=
EXTT5=
EXTT6=
EXTT7=
EXTT8=
EXTT9=
EXTT10=
EXTT11=
EXTT12=
EXTT13=
EXTT14=
EXTT15=
EXTT16=
EXTT17=
PLAYORDER=
